# xmcd
#
# Track frame offsets:
#	150
#	2784
#	16954
#	28833
#	45898
#	48381
#	56202
#	68638
#	73311
#	86662
#	99914
#	106384
#	110350
#	121969
#	126825
#	139071
#	155633
#	158154
#	168719
#	178900
#	218715
#	226871
#	232891
#
# Disc length: 3373 seconds
#
# Revision: 0
# Processed by: cddbd v1.5.2PL0 Copyright (c) Steve Scherf et al.
# Submitted via: audiograbber 1.83.01
#
DISCID=390d2b17
DTITLE=Various Artist - Roots of Mississippi Blues
DYEAR=2009
DGENRE=Blues
TTITLE0=Joe "Poppa Rock" Louis - Why B.B. King Sings the Blues
TTITLE1=Sonny Boy Williams - Going Down to the Station
TTITLE2=Lovey Williams - Going Away Blues
TTITLE3=Fanny Bell Chapman - Go Where I Send Thee
TTITLE4=Chapman Family - ...inspiration...
TTITLE5=Fannie Bell Chapman - I Got a New Born Soul
TTITLE6=Inmates at Parchman State Penitentiary, Camp B - Lazarus
TTITLE7=Anonymous - ...hidden violence...
TTITLE8=Inmates at Parchman State Penitentiary, Camp B - Oh Rosie
TTITLE9=Southland Hummingbirds - There Are Days
TTITLE10=Mary Gordon - You Shall Be Free
TTITLE11=James "Son" Thomas - Blues and Spirituals
TTITLE12=Lee Kizart - I Got the World in a Jug and the Stopper in My Hand
TTITLE13=Jasper Love - The Blues as Consolation
TTITLE14=James "Son" Thomas - Highway 61 Blues
TTITLE15=Scott Dunbar - It's So Cold Up North
TTITLE16=Arthur Lee Williams - A Definition of the Blues
TTITLE17=Lovey Williams - Train I Ride
TTITLE18=Somebody Knocking On My Door - Napoleon Stickland with Bernice Turner 
TTITLE18=and othar Turner
TTITLE19=Scott Dunbar - Jay Bird
TTITLE20=Lovey Williams - Boogie Chillun
TTITLE21=Millie Witherspoon - Time of Noah
TTITLE22=James "Son" Thomas - Cairo Blues
EXTD=Accompanying CD to the book "Give My Poor Heart Ease" by William R. Ferris
EXTD=published by University of North Carolina Press 2009 \n\nWilliam R. Ferri
EXTD=s Collection | Southern Folklife Collection 
EXTT0=
EXTT1=
EXTT2=
EXTT3=
EXTT4=
EXTT5=
EXTT6=
EXTT7=
EXTT8=
EXTT9=
EXTT10=
EXTT11=
EXTT12=
EXTT13=
EXTT14=
EXTT15=
EXTT16=
EXTT17=
EXTT18=
EXTT19=
EXTT20=
EXTT21=
EXTT22=
PLAYORDER=
